<svg xmlns="http://www.w3.org/2000/svg" width="55" height="55" viewBox="0 0 55 55">
  <g id="Group_24971" data-name="Group 24971" transform="translate(-749 -1436)">
    <g id="Rectangle_6524" data-name="Rectangle 6524" transform="translate(749 1436)" fill="#fff" stroke="#707070" stroke-width="1" opacity="0">
      <rect width="55" height="55" stroke="none"/>
      <rect x="0.5" y="0.5" width="54" height="54" fill="none"/>
    </g>
    <g id="stay_home" data-name="stay home" transform="translate(382.641 -44.557)">
      <g id="Group_25195" data-name="Group 25195" transform="translate(369.36 1483.556)">
        <path id="Path_349379" data-name="Path 349379" d="M369.367,1496.235c.323-2.607.586-5.224.987-7.818a5.357,5.357,0,0,1,5.92-4.639,5.446,5.446,0,0,1,4.74,6.135,47.829,47.829,0,0,0,.055,12.68c.027.155.065.307.112.53a5.681,5.681,0,0,1,4.967-1.451,5.55,5.55,0,0,1,4.464,3.832c.534,1.48,1.032,2.974,1.548,4.46a1.967,1.967,0,0,1-1.08,2.509,1.9,1.9,0,0,1-2.545-1.055c-.556-1.419-1.055-2.862-1.519-4.314-.326-1.019-.9-1.665-2.022-1.591a1.8,1.8,0,0,0-1.7,1.818c-.246,1.888.668,3.439,1.433,5.062a3.308,3.308,0,0,1,.237,2.334,1.888,1.888,0,0,1-3.339.064,26.315,26.315,0,0,1-4.607-12.991c-.268-4.047.005-8.132.06-12.2.013-.956-.171-1.786-1.277-1.894-1.024-.1-1.447.582-1.615,1.51-1.336,7.349-1.534,14.709,1.128,21.77,1.308,3.466,3.6,6.555,5.35,9.864,1.3,2.444,2.463,4.958,3.649,7.459a2.031,2.031,0,0,0,2.194,1.407,1.93,1.93,0,0,0,1.83-2.06,15.147,15.147,0,0,1,3.573-10.211,33.63,33.63,0,0,0,6.109-11.761,5.687,5.687,0,0,1,9.228-2.738c.06.048.129.085.447.291.115-2.627.31-5.082.3-7.536-.008-2.35-.412-4.708-.3-7.046a5.135,5.135,0,0,1,4.973-4.9,5.315,5.315,0,0,1,5.578,4.374c1.585,8.135,1.722,16.276-1.174,24.126-1.27,3.444-3.419,6.576-5.264,9.8-1.524,2.66-3.341,5.169-3.96,8.253a9.09,9.09,0,0,1-.3,2c-.255.544-.873.921-1.331,1.37h-.976a2.221,2.221,0,0,1-1.458-2.605c.077-.6.128-1.2.253-1.782.736-3.458,2.681-6.336,4.435-9.319,1.725-2.932,3.7-5.8,4.876-8.958,2.635-7.093,2.463-14.458,1.122-21.824-.175-.955-.636-1.623-1.678-1.488-1.088.142-1.26.972-1.244,1.928.063,4.052.337,8.121.073,12.152a25.423,25.423,0,0,1-4.662,13.008,2.449,2.449,0,0,1-2,.825,2.483,2.483,0,0,1-1.473-1.473,2.584,2.584,0,0,1,.427-1.749c.83-1.579,1.671-3.145,1.452-5.009-.117-1-.576-1.792-1.705-1.869a1.849,1.849,0,0,0-2.027,1.637,31.86,31.86,0,0,1-5.435,11.084,21.5,21.5,0,0,0-2.506,3.7,13.925,13.925,0,0,0-1.347,4.7c-.285,4.213-1.256,5.686-5.235,7.039h-1.658c-2.142-.468-3.939-1.536-4.644-3.655a45.674,45.674,0,0,0-5.217-9.87c-2.26-3.569-4.323-7.236-5.1-11.447-.479-2.609-.759-5.256-1.129-7.886v-4.583Z" transform="translate(-369.36 -1483.708)" fill="#dc773d" stroke="#f5fbea" stroke-width="1.5"/>
        <path id="Path_349382" data-name="Path 349382" d="M500.786,1493.814c.41-1.664-.5-2.979-2.1-4-.819-.521-1.545-1.187-2.328-1.768a2.641,2.641,0,0,0-3.34,0,35.266,35.266,0,0,0-3.426,2.73,4.19,4.19,0,0,0-1.015,2.135,18.124,18.124,0,0,0-.048,2.819,1.893,1.893,0,0,1-1.842,1.954,1.722,1.722,0,0,1-1.92-1.626c-.177-2.911-.43-5.9,2.155-8.067,1.294-1.085,2.62-2.14,4-3.115a5.683,5.683,0,0,1,6.346-.61,29.1,29.1,0,0,1,5.944,4.645c.855.864,1.092,2.436,1.37,3.737a13.338,13.338,0,0,1,.038,3.061,1.915,1.915,0,1,1-3.826-.023c-.014-.52,0-1.04,0-1.878Z" transform="translate(-469.642 -1483.556)" fill="#dc773d" stroke="#f5fbea" stroke-width="1.5"/>
        <path id="Path_349383" data-name="Path 349383" d="M544.691,1554.97a2.446,2.446,0,1,1-2.441,2.451,2.443,2.443,0,0,1,2.441-2.451Z" transform="translate(-519.729 -1545.667)" fill="#dc773d" stroke="#f5fbea" stroke-width="1.5"/>
      </g>
    </g>
  </g>
</svg>
