<svg xmlns="http://www.w3.org/2000/svg" width="24" height="24.001" viewBox="0 0 24 24.001">
  <g id="Linkedin" transform="translate(18465.369 7891.389)">
    <path id="Path_349405" data-name="Path 349405" d="M19.36,19.61a6.3,6.3,0,0,1,6.278,6.278V37.333a6.3,6.3,0,0,1-6.278,6.278H7.916a6.3,6.3,0,0,1-6.278-6.279V25.888A6.3,6.3,0,0,1,7.916,19.61" transform="translate(-18467.008 -7910.999)" fill="#773ddc"/>
    <path id="Path_349406" data-name="Path 349406" d="M10.087,30.7h2.324v7.466H10.087Zm1.162-3.71A1.346,1.346,0,1,1,9.9,28.331a1.345,1.345,0,0,1,1.348-1.344" transform="translate(-18468.471 -7912.322)" fill="#fff"/>
    <path id="Path_349407" data-name="Path 349407" d="M14.734,31.468H16.96v1.021h.03a2.441,2.441,0,0,1,2.2-1.206c2.35,0,2.783,1.545,2.783,3.556v4.095H19.652V35.3c0-.867-.017-1.98-1.206-1.98-1.207,0-1.392.943-1.392,1.916v3.693H14.734Z" transform="translate(-18469.342 -7913.096)" fill="#fff"/>
  </g>
</svg>
