<svg xmlns="http://www.w3.org/2000/svg" width="24.002" height="24.002" viewBox="0 0 24.002 24.002">
  <g id="Instagram" transform="translate(-1130 -1402.379)">
    <path id="Instagram-2" data-name="Instagram" d="M19645,9497h-14a5.007,5.007,0,0,1-5-5v-14a5.007,5.007,0,0,1,5-5h14a5.007,5.007,0,0,1,5,5v14A5.007,5.007,0,0,1,19645,9497Zm-10.754-21a5.256,5.256,0,0,0-5.248,5.252v7.94a5.256,5.256,0,0,0,5.248,5.252h7.943a5.258,5.258,0,0,0,5.252-5.252v-7.94a5.258,5.258,0,0,0-5.252-5.252Zm7.943,16.861h-7.943a3.671,3.671,0,0,1-3.664-3.669v-7.94a3.671,3.671,0,0,1,3.664-3.669h7.943a3.673,3.673,0,0,1,3.67,3.669v7.94A3.673,3.673,0,0,1,19642.189,9492.859Zm-3.965-12.363a4.722,4.722,0,1,0,4.715,4.725A4.732,4.732,0,0,0,19638.225,9480.5Zm4.922-1.4a1.134,1.134,0,1,0,1.135,1.134A1.137,1.137,0,0,0,19643.146,9479.1Zm-4.922,9.261a3.139,3.139,0,1,1,3.137-3.136A3.145,3.145,0,0,1,19638.225,9488.356Z" transform="translate(-18496 -8070.621)" fill="#773ddc"/>
  </g>
</svg>
