<svg xmlns="http://www.w3.org/2000/svg" width="55" height="55" viewBox="0 0 55 55">
  <g id="Group_24971" data-name="Group 24971" transform="translate(-749 -1436)">
    <g id="noun-video-call-4097539" transform="translate(676.547 1394.761)">
      <path id="Path_349145" data-name="Path 349145" d="M151.309,179.185a8.522,8.522,0,1,0-7.136,0,10.387,10.387,0,0,0-6.9,9.769v3.557h-.995a6.642,6.642,0,0,0-6.629,6.441h-2.145v-3.711a4.675,4.675,0,0,0-2.375-4.067,3.915,3.915,0,1,0-4.678,0,4.677,4.677,0,0,0-2.376,4.067v3.711h-4.19l-5.666-17.893h22.3l2.506,7.913h0a.7.7,0,1,0,1.32-.417l-2.659-8.4h0a.7.7,0,0,0-.66-.483H107.275a.7.7,0,0,0-.659.9l5.818,18.375h-4.771a.7.7,0,1,0,0,1.383h34.854a2.871,2.871,0,0,0,2.866-2.867v-8.008a.7.7,0,0,0-1.383,0v8.008a1.486,1.486,0,0,1-1.484,1.484H131.035a5.256,5.256,0,0,1,5.244-5.059h1.687a.7.7,0,0,0,.7-.7v-4.243a8.994,8.994,0,0,1,8.98-8.978h.2a8.993,8.993,0,0,1,8.983,8.983v10.69a.7.7,0,0,0,1.384,0v-10.7a10.385,10.385,0,0,0-6.9-9.769Zm-28.516,6.325a2.533,2.533,0,1,1-1.789.742,2.53,2.53,0,0,1,1.789-.742Zm-3.331,9.735a3.294,3.294,0,0,1,3.29-3.29h.08a3.294,3.294,0,0,1,3.29,3.29v3.711h-6.661ZM140.6,171.45a7.146,7.146,0,1,1,2.094,5.043,7.137,7.137,0,0,1-2.094-5.043Z" transform="translate(-33.13 -106.101)" fill="#dc773d" stroke="#dc773d" stroke-width="1"/>
      <path id="Path_349146" data-name="Path 349146" d="M190.963,63.46h9.383l4.6,4.595h0a.689.689,0,0,0,.49.2.705.705,0,0,0,.264-.052.7.7,0,0,0,.428-.639V63.46h.07a4.107,4.107,0,0,0,4.1-4.1V48.341a4.107,4.107,0,0,0-4.1-4.1H190.963a4.105,4.105,0,0,0-4.1,4.1V59.359a4.105,4.105,0,0,0,4.1,4.1Zm-2.719-15.119a2.722,2.722,0,0,1,2.719-2.719h15.229a2.722,2.722,0,0,1,2.721,2.719V59.359a2.722,2.722,0,0,1-2.718,2.718h-.761a.7.7,0,0,0-.7.7V65.9l-3.616-3.625a.7.7,0,0,0-.49-.2h-9.67a2.721,2.721,0,0,1-2.719-2.718Z" transform="translate(-104.894)" fill="#dc773d" stroke="#dc773d" stroke-width="1"/>
      <path id="Path_349147" data-name="Path 349147" d="M233.26,97.056h12.476a.7.7,0,0,0,0-1.385H233.26a.7.7,0,0,0,0,1.385Z" transform="translate(-145.814 -45.979)" fill="#dc773d" stroke="#dc773d" stroke-width="1"/>
      <path id="Path_349148" data-name="Path 349148" d="M233.305,132.292h12.476a.7.7,0,1,0,0-1.383H233.305a.7.7,0,0,0,0,1.383Z" transform="translate(-145.859 -77.476)" fill="#dc773d" stroke="#dc773d" stroke-width="1"/>
      <path id="Path_349149" data-name="Path 349149" d="M286.467,166.216h-7.5a.7.7,0,1,0,0,1.383h7.5a.7.7,0,1,0,0-1.383Z" transform="translate(-186.546 -109.04)" fill="#dc773d" stroke="#dc773d" stroke-width="1"/>
    </g>
    <g id="Rectangle_6524" data-name="Rectangle 6524" transform="translate(749 1436)" fill="#fff" stroke="#707070" stroke-width="1" opacity="0">
      <rect width="55" height="55" stroke="none"/>
      <rect x="0.5" y="0.5" width="54" height="54" fill="none"/>
    </g>
  </g>
</svg>
