<svg xmlns="http://www.w3.org/2000/svg" width="55" height="55" viewBox="0 0 55 55">
  <g id="Group_24969" data-name="Group 24969" transform="translate(-377 -1437)">
    <g id="noun-ecology-1351693" transform="translate(234.887 1378.35)">
      <path id="Path_348904" data-name="Path 348904" d="M192.38,308.507a3.778,3.778,0,0,0-4.9-2.317l-5.609,2.106h0a8.026,8.026,0,0,1-4.557.325l-.944-.211a3.625,3.625,0,0,0-.409-4.652l-4.339-4.333a9.81,9.81,0,0,0-6.982-2.891H152.852v-1.576a.957.957,0,0,0-.957-.957H147.07a.957.957,0,0,0-.957.957v17.7a.957.957,0,0,0,.957.957H151.9a.957.957,0,0,0,.958-.957v-1.442a16.024,16.024,0,0,1,3.982.638l7.817,4.358a9.572,9.572,0,0,0,4.627,1.2h7.836a11.6,11.6,0,0,0,4.148-.766l8.883-3.388a3.766,3.766,0,0,0,2.228-4.748ZM150.938,311.7h-2.91V295.915h2.917V311.7Zm38.533-.23-8.883,3.388a9.7,9.7,0,0,1-3.472.638h-7.824a7.66,7.66,0,0,1-3.7-.958l-7.836-4.352c-.638-.357-2.081-.638-4.907-.9V298.437h11.787a7.9,7.9,0,0,1,5.628,2.329l4.339,4.346h0a1.723,1.723,0,0,1,0,2.438,1.767,1.767,0,0,1-2.438,0l-3.612-3.612h0a.957.957,0,0,0-1.353,1.353l3.612,3.612h0a3.568,3.568,0,0,0,3.421.957.946.946,0,0,0,.23.089l2.438.536h0a9.93,9.93,0,0,0,5.641-.4l5.609-2.106a1.865,1.865,0,1,1,1.314,3.491Z" transform="translate(0 -206.758)" fill="#dc773d"/>
      <path id="Path_348905" data-name="Path 348905" d="M315.156,79.668h6.95v13.5a.957.957,0,0,0,1.787.479l10.5-18.213a.957.957,0,0,0-.8-1.41H327.74l.236-12.405a.957.957,0,0,0-1.742-.562l-11.87,17.11a.957.957,0,0,0,.791,1.5ZM326,64.748l-.191,10.211a.957.957,0,0,0,.957.977h5.144L324.02,89.611v-10.9a.957.957,0,0,0-.957-.958H317Z" transform="translate(-148.929)" fill="#dc773d"/>
    </g>
    <g id="Rectangle_6522" data-name="Rectangle 6522" transform="translate(377 1437)" fill="#fff" stroke="#707070" stroke-width="1" opacity="0">
      <rect width="55" height="55" stroke="none"/>
      <rect x="0.5" y="0.5" width="54" height="54" fill="none"/>
    </g>
  </g>
</svg>
