<svg xmlns="http://www.w3.org/2000/svg" width="82" height="55" viewBox="0 0 82 55">
  <g id="Group_24972" data-name="Group 24972" transform="translate(-922 -1437)">
    <g id="Group_24965" data-name="Group 24965" transform="translate(8 100.605)">
      <g id="noun-chronic-pain-4236349" transform="translate(943.917 1341.31)">
        <path id="Path_348945" data-name="Path 348945" d="M163.394,135.161a8.256,8.256,0,0,1,1.157-.517c-.025-.123-.074-.221-.1-.32a6.475,6.475,0,0,1,.788-5c.049-.1.123-.172.172-.271a1.721,1.721,0,0,1-.468-.714,1.528,1.528,0,0,1-.049-.665,7.585,7.585,0,0,0-.739,1.009,7.856,7.856,0,0,0-.935,5.932,4.553,4.553,0,0,0,.172.542Z" transform="translate(-161.302 -122.73)" fill="#dc773d" stroke="#dc773d" stroke-width="0.5"/>
        <path id="Path_348946" data-name="Path 348946" d="M355.653,72.615l-2.191-2.043a.486.486,0,0,1-.148-.271,7.809,7.809,0,0,0-6.942-5.342,1.584,1.584,0,0,1-.246,1.181l-.049.074a6.566,6.566,0,0,1,6.055,4.48,2.273,2.273,0,0,0,.443.739l2.215,2.068a.343.343,0,0,1,.1.369.313.313,0,0,1-.271.246l-.714.172a.868.868,0,0,0-.64,1.034l.689,2.831a.6.6,0,0,1-.418.714l-2.462.591a.585.585,0,0,0-.468.615l.049,2.855h-2.929a5.845,5.845,0,0,1-.591,1.255h4.16a.616.616,0,0,0,.443-.2.593.593,0,0,0,.172-.443l-.025-2.979,1.969-.468a1.86,1.86,0,0,0,1.132-.837,1.814,1.814,0,0,0,.221-1.378l-.591-2.462.345-.074a1.651,1.651,0,0,0,1.181-1.157,2.162,2.162,0,0,0,.049-.394,1.708,1.708,0,0,0-.541-1.181Z" transform="translate(-336.33 -62.769)" fill="#dc773d" stroke="#dc773d" stroke-width="0.5"/>
        <path id="Path_348947" data-name="Path 348947" d="M210.3,18.517l-.935,1.551a.316.316,0,0,0-.025.3.349.349,0,0,0,.2.222l2.338,1.083-.443,1.3a.362.362,0,0,0,.148.418l2.658,1.7c.049.025.074.049.123.049a.308.308,0,0,0,.32-.1.338.338,0,0,0,.025-.443l-1.3-1.871.739-1.748a.385.385,0,0,0-.123-.443l-1.772-1.157,1.009-1.551a.377.377,0,0,0,0-.394l-1.625-2.215a.235.235,0,0,0-.3-.074l-3,1.231a.383.383,0,0,0-.148.2.2.2,0,0,0,.1.222Z" transform="translate(-204.489 -15.12)" fill="#dc773d"/>
        <path id="Path_348948" data-name="Path 348948" d="M418.613,183.547a.985.985,0,1,0-.985.985A.987.987,0,0,0,418.613,183.547Z" transform="translate(-403.795 -175.202)" fill="#dc773d"/>
        <path id="Path_348949" data-name="Path 348949" d="M129.563,307.44a5.243,5.243,0,1,0,5.243,5.243A5.263,5.263,0,0,0,129.563,307.44Zm0,9.231a3.988,3.988,0,1,1,3.988-3.988A3.987,3.987,0,0,1,129.563,316.671Z" transform="translate(-124.32 -294.591)" fill="#dc773d" stroke="#dc773d" stroke-width="0.5"/>
        <path id="Path_348950" data-name="Path 348950" d="M232.473,363.465H231.39v-1.649a.615.615,0,0,0-1.231,0v2.265a.609.609,0,0,0,.615.615h1.7a.615.615,0,1,0,0-1.231Z" transform="translate(-225.507 -345.988)" fill="#dc773d"/>
      </g>
      <g id="noun-hand-4840628" transform="translate(921 1338.395)">
        <path id="Path_349065" data-name="Path 349065" d="M286.625,107.608a23.546,23.546,0,0,1-2.548-5.916,12.385,12.385,0,0,0-.945-2.514c-.042-.077-.1-.146-.139-.222l4.222-9.021a4,4,0,0,0-2.076-4.944l.715-1.5a3.823,3.823,0,0,0-2.347-4.847c-2.034-.826-3.9.576-4.861,2.327-.472.868-1.041,1.882-1.674,3-4.09,7.292-10.278,18.306-9.229,23.243.215,1,.5,2.007.806,3.076a32.5,32.5,0,0,1,1.618,9.93c-.028,3.646,0,5.722,0,5.743V127.7a.7.7,0,0,0,.695.695h12.965a.7.7,0,0,0,.695-.695v-7.493a5.208,5.208,0,0,1,1.243-2.41c1.6-2.229,3.777-5.285.86-10.194Zm-.681-18.229L282.007,97.8a3.627,3.627,0,0,0-2.535-.861l5.077-10.687a2.6,2.6,0,0,1,1.4,3.125Zm-2.806,37.631H271.562v-2.132h11.569v2.132Zm1.5-10.014a6.019,6.019,0,0,0-1.5,3.215v3.278H271.555c0-.875,0-1.965.014-3.264a33.618,33.618,0,0,0-1.674-10.319c-.3-1.041-.583-2.028-.785-2.979-.945-4.431,5.333-15.6,9.076-22.278.632-1.118,1.2-2.139,1.68-3.014.493-.9,1.7-2.278,3.118-1.708a2.445,2.445,0,0,1,1.6,3.007L277.6,97.628a3.955,3.955,0,0,0-1.291,4.188,48.665,48.665,0,0,0,2,5.16.695.695,0,0,0,1.271-.562,47.7,47.7,0,0,1-1.917-4.91,2.283,2.283,0,1,1,4.25-1.659,11.569,11.569,0,0,1,.833,2.257,24.592,24.592,0,0,0,2.681,6.222c2.458,4.125.729,6.541-.792,8.673Z" transform="translate(-267.625 -78.399)" fill="#dc773d" stroke="#dc773d" stroke-width="0.5"/>
        <path id="Path_349066" data-name="Path 349066" d="M392.37,325.829a.573.573,0,0,0,.056.077l.056.077a.752.752,0,0,0,.083.069.28.28,0,0,0,.069.056.679.679,0,0,0,.1.048c.021.007.042.021.069.028a.749.749,0,0,0,.181.028H393a.64.64,0,0,0,.271-.062.026.026,0,0,0,.021-.007.007.007,0,0,0,.007-.007c.007,0,.014-.007.021-.007a.455.455,0,0,0,.09-.077,1.221,1.221,0,0,0,.111-.09,1.024,1.024,0,0,0,.069-.111,1.01,1.01,0,0,0,.063-.118.751.751,0,0,0,.021-.125.437.437,0,0,0,.014-.132.46.46,0,0,0-.035-.132c-.014-.042-.014-.083-.028-.118-.132-.278-.361-.681-.361-.681h-.007a.684.684,0,0,0-.924-.271.692.692,0,0,0-.292.937Z" transform="translate(-376.538 -293.711)" fill="#dc773d"/>
        <path id="Path_349067" data-name="Path 349067" d="M392.868,346.529h-.028a.7.7,0,0,0-.695.667,4.081,4.081,0,0,1-.826,2.09.7.7,0,0,0,1.166.757,5.485,5.485,0,0,0,1.049-2.792.7.7,0,0,0-.667-.722Z" transform="translate(-375.882 -313.279)" fill="#dc773d"/>
      </g>
      <g id="noun-hand-4840628-2" data-name="noun-hand-4840628" transform="translate(965.792 1338.395)">
        <path id="Path_349065-2" data-name="Path 349065" d="M269.058,107.608a23.543,23.543,0,0,0,2.548-5.916,12.385,12.385,0,0,1,.945-2.514c.042-.077.1-.146.139-.222l-4.222-9.021a4,4,0,0,1,2.076-4.944l-.715-1.5a3.823,3.823,0,0,1,2.348-4.847c2.034-.826,3.9.576,4.861,2.327.472.868,1.041,1.882,1.674,3,4.09,7.292,10.278,18.306,9.229,23.243-.215,1-.5,2.007-.806,3.076a32.507,32.507,0,0,0-1.618,9.93c.028,3.646,0,5.722,0,5.743V127.7a.7.7,0,0,1-.695.695H271.856a.7.7,0,0,1-.695-.695v-7.493a5.209,5.209,0,0,0-1.243-2.41c-1.6-2.229-3.777-5.285-.86-10.194Zm.681-18.229,3.937,8.423a3.628,3.628,0,0,1,2.535-.861l-5.077-10.687a2.6,2.6,0,0,0-1.4,3.125Zm2.806,37.631H284.12v-2.132H272.551v2.132ZM271.044,117a6.019,6.019,0,0,1,1.5,3.215v3.278h11.583c0-.875,0-1.965-.014-3.264a33.616,33.616,0,0,1,1.674-10.319c.3-1.041.583-2.028.785-2.979.945-4.431-5.333-15.6-9.076-22.278-.632-1.118-1.2-2.139-1.68-3.014-.493-.9-1.7-2.278-3.118-1.708a2.445,2.445,0,0,0-1.6,3.007l6.979,14.695a3.955,3.955,0,0,1,1.291,4.188,48.662,48.662,0,0,1-2,5.16.695.695,0,1,1-1.271-.562,47.731,47.731,0,0,0,1.917-4.91,2.283,2.283,0,1,0-4.25-1.659,11.567,11.567,0,0,0-.833,2.257,24.592,24.592,0,0,1-2.681,6.222c-2.458,4.125-.729,6.541.792,8.673Z" transform="translate(-267.625 -78.399)" fill="#dc773d" stroke="#dc773d" stroke-width="0.5"/>
        <path id="Path_349066-2" data-name="Path 349066" d="M393.269,325.829a.569.569,0,0,1-.056.077c-.021.028-.035.048-.056.077a.749.749,0,0,1-.083.069.278.278,0,0,1-.069.056.675.675,0,0,1-.1.048c-.021.007-.042.021-.069.028a.75.75,0,0,1-.181.028h-.007a.641.641,0,0,1-.271-.062.026.026,0,0,1-.021-.007.007.007,0,0,1-.007-.007c-.007,0-.014-.007-.021-.007a.451.451,0,0,1-.09-.077,1.234,1.234,0,0,1-.111-.09,1.038,1.038,0,0,1-.069-.111.991.991,0,0,1-.062-.118.751.751,0,0,1-.021-.125.434.434,0,0,1-.014-.132.459.459,0,0,1,.035-.132c.014-.042.014-.083.028-.118.132-.278.361-.681.361-.681h.007a.684.684,0,0,1,.924-.271.692.692,0,0,1,.292.937Z" transform="translate(-388.669 -293.711)" fill="#dc773d"/>
        <path id="Path_349067-2" data-name="Path 349067" d="M391.874,346.529h.028a.7.7,0,0,1,.695.667,4.08,4.08,0,0,0,.826,2.09.7.7,0,0,1-1.166.757,5.486,5.486,0,0,1-1.049-2.792.7.7,0,0,1,.667-.722Z" transform="translate(-388.428 -313.279)" fill="#dc773d"/>
      </g>
    </g>
    <g id="Rectangle_6525" data-name="Rectangle 6525" transform="translate(922 1437)" fill="#fff" stroke="#707070" stroke-width="1" opacity="0">
      <rect width="82" height="55" stroke="none"/>
      <rect x="0.5" y="0.5" width="81" height="54" fill="none"/>
    </g>
  </g>
</svg>
