<svg xmlns="http://www.w3.org/2000/svg" width="55" height="55" viewBox="0 0 55 55">
  <g id="Group_24973" data-name="Group 24973" transform="translate(-1121 -1437)">
    <g id="noun-cost-2610086" transform="translate(1048.689 1412.75)">
      <path id="Path_348990" data-name="Path 348990" d="M508.92,507.5H499.6a.848.848,0,0,0-.848.847v1.695a.848.848,0,0,0,.848.848h9.322a.848.848,0,0,0,.847-.848v-1.695A.848.848,0,0,0,508.92,507.5Z" transform="translate(-385.457 -434.64)" fill="#dc773d" stroke="#f5fbea" stroke-width="1"/>
      <path id="Path_348991" data-name="Path 348991" d="M508.92,455H499.6a.848.848,0,0,0-.848.847v1.695a.848.848,0,0,0,.848.847h9.322a.848.848,0,0,0,.847-.847v-1.695A.848.848,0,0,0,508.92,455Z" transform="translate(-385.457 -387.225)" fill="#dc773d" stroke="#f5fbea" stroke-width="1"/>
      <path id="Path_348992" data-name="Path 348992" d="M508.92,402.5H499.6a.848.848,0,0,0-.848.848v1.695a.848.848,0,0,0,.848.847h9.322a.848.848,0,0,0,.847-.847v-1.695A.848.848,0,0,0,508.92,402.5Z" transform="translate(-385.457 -339.809)" fill="#dc773d" stroke="#f5fbea" stroke-width="1"/>
      <path id="Path_348993" data-name="Path 348993" d="M508.92,350H499.6a.848.848,0,0,0-.848.847v1.695a.848.848,0,0,0,.848.847h9.322a.848.848,0,0,0,.847-.847v-1.695A.848.848,0,0,0,508.92,350Z" transform="translate(-385.457 -292.394)" fill="#dc773d" stroke="#f5fbea" stroke-width="1"/>
      <path id="Path_348994" data-name="Path 348994" d="M508.92,297.5H499.6a.848.848,0,0,0-.848.847v1.695a.848.848,0,0,0,.848.847h9.322a.848.848,0,0,0,.847-.847v-1.695A.848.848,0,0,0,508.92,297.5Z" transform="translate(-385.457 -244.979)" fill="#dc773d" stroke="#f5fbea" stroke-width="1"/>
      <path id="Path_348995" data-name="Path 348995" d="M508.92,245H499.6a.848.848,0,0,0-.848.847v1.695a.848.848,0,0,0,.848.847h9.322a.848.848,0,0,0,.847-.847v-1.695A.848.848,0,0,0,508.92,245Z" transform="translate(-385.457 -197.564)" fill="#dc773d" stroke="#f5fbea" stroke-width="1"/>
      <path id="Path_348996" data-name="Path 348996" d="M377.669,507.5h-9.322a.848.848,0,0,0-.847.847v1.695a.848.848,0,0,0,.847.848h9.322a.848.848,0,0,0,.847-.848v-1.695A.848.848,0,0,0,377.669,507.5Z" transform="translate(-266.919 -434.64)" fill="#dc773d" stroke="#f5fbea" stroke-width="1"/>
      <path id="Path_348997" data-name="Path 348997" d="M377.669,455h-9.322a.848.848,0,0,0-.847.847v1.695a.848.848,0,0,0,.847.847h9.322a.848.848,0,0,0,.847-.847v-1.695A.848.848,0,0,0,377.669,455Z" transform="translate(-266.919 -387.225)" fill="#dc773d" stroke="#f5fbea" stroke-width="1"/>
      <path id="Path_348998" data-name="Path 348998" d="M377.669,402.5h-9.322a.848.848,0,0,0-.847.848v1.695a.848.848,0,0,0,.847.847h9.322a.848.848,0,0,0,.847-.847v-1.695A.848.848,0,0,0,377.669,402.5Z" transform="translate(-266.919 -339.809)" fill="#dc773d" stroke="#f5fbea" stroke-width="1"/>
      <path id="Path_348999" data-name="Path 348999" d="M377.669,350h-9.322a.848.848,0,0,0-.847.847v1.695a.848.848,0,0,0,.847.847h9.322a.848.848,0,0,0,.847-.847v-1.695A.848.848,0,0,0,377.669,350Z" transform="translate(-266.919 -292.394)" fill="#dc773d" stroke="#f5fbea" stroke-width="1"/>
      <path id="Path_349000" data-name="Path 349000" d="M246.419,507.5H237.1a.848.848,0,0,0-.847.847v1.695a.848.848,0,0,0,.847.848h9.322a.848.848,0,0,0,.847-.848v-1.695A.848.848,0,0,0,246.419,507.5Z" transform="translate(-148.381 -434.64)" fill="#dc773d" stroke="#f5fbea" stroke-width="1"/>
      <path id="Path_349001" data-name="Path 349001" d="M246.419,455H237.1a.848.848,0,0,0-.847.847v1.695a.848.848,0,0,0,.847.847h9.322a.848.848,0,0,0,.847-.847v-1.695A.848.848,0,0,0,246.419,455Z" transform="translate(-148.381 -387.225)" fill="#dc773d" stroke="#f5fbea" stroke-width="1"/>
      <path id="Path_349002" data-name="Path 349002" d="M115.169,507.5h-9.322a.848.848,0,0,0-.847.847v1.695a.848.848,0,0,0,.847.848h9.322a.848.848,0,0,0,.847-.848v-1.695A.848.848,0,0,0,115.169,507.5Z" transform="translate(-29.843 -434.64)" fill="#dc773d" stroke="#f5fbea" stroke-width="1"/>
      <path id="Path_349003" data-name="Path 349003" d="M115.169,455h-9.322a.848.848,0,0,0-.847.847v1.695a.848.848,0,0,0,.847.847h9.322a.848.848,0,0,0,.847-.847v-1.695A.848.848,0,0,0,115.169,455Z" transform="translate(-29.843 -387.225)" fill="#dc773d" stroke="#f5fbea" stroke-width="1"/>
      <path id="Path_349004" data-name="Path 349004" d="M246.419,402.5H237.1a.848.848,0,0,0-.847.848v1.695a.848.848,0,0,0,.847.847h9.322a.848.848,0,0,0,.847-.847v-1.695A.848.848,0,0,0,246.419,402.5Z" transform="translate(-148.381 -339.809)" fill="#dc773d" stroke="#f5fbea" stroke-width="1"/>
      <path id="Path_349005" data-name="Path 349005" d="M115.169,402.5h-9.322a.848.848,0,0,0-.847.848v1.695a.848.848,0,0,0,.847.847h9.322a.848.848,0,0,0,.847-.847v-1.695A.848.848,0,0,0,115.169,402.5Z" transform="translate(-29.843 -339.809)" fill="#dc773d" stroke="#f5fbea" stroke-width="1"/>
      <path id="Path_349006" data-name="Path 349006" d="M246.419,350H237.1a.848.848,0,0,0-.847.847v1.695a.848.848,0,0,0,.847.847h9.322a.848.848,0,0,0,.847-.847v-1.695A.848.848,0,0,0,246.419,350Z" transform="translate(-148.381 -292.394)" fill="#dc773d" stroke="#f5fbea" stroke-width="1"/>
      <path id="Path_349007" data-name="Path 349007" d="M377.669,297.5h-9.322a.848.848,0,0,0-.847.847v1.695a.848.848,0,0,0,.847.847h9.322a.848.848,0,0,0,.847-.847v-1.695A.848.848,0,0,0,377.669,297.5Z" transform="translate(-266.919 -244.979)" fill="#dc773d" stroke="#f5fbea" stroke-width="1"/>
      <path id="Path_349008" data-name="Path 349008" d="M377.669,245h-9.322a.848.848,0,0,0-.847.847v1.695a.848.848,0,0,0,.847.847h9.322a.848.848,0,0,0,.847-.847v-1.695A.848.848,0,0,0,377.669,245Z" transform="translate(-266.919 -197.564)" fill="#dc773d" stroke="#f5fbea" stroke-width="1"/>
      <path id="Path_349009" data-name="Path 349009" d="M508.92,192.5H499.6a.848.848,0,0,0-.848.847v1.695a.848.848,0,0,0,.848.847h9.322a.848.848,0,0,0,.847-.847v-1.695A.848.848,0,0,0,508.92,192.5Z" transform="translate(-385.457 -150.148)" fill="#dc773d" stroke="#f5fbea" stroke-width="1"/>
      <path id="Path_349010" data-name="Path 349010" d="M508.92,140H499.6a.848.848,0,0,0-.848.847v1.695a.848.848,0,0,0,.848.847h9.322a.848.848,0,0,0,.847-.847v-1.695A.848.848,0,0,0,508.92,140Z" transform="translate(-385.457 -102.733)" fill="#dc773d" stroke="#f5fbea" stroke-width="1"/>
      <path id="Path_349011" data-name="Path 349011" d="M143.71,28.971v5.753H145.4V26.25H136.93v1.695H142.3a248.578,248.578,0,0,1-31.1,22.428,7.553,7.553,0,0,0-1.02-6.365c-.126.012-.248.038-.376.038a4.227,4.227,0,0,1-4.081-3.156,7.62,7.62,0,1,0-3.669,14.792c-1.75.965-3.525,1.925-5.35,2.864l.776,1.507c2.73-1.406,5.378-2.847,7.941-4.3a7.625,7.625,0,0,0,4.14-2.406A250.156,250.156,0,0,0,143.71,28.971Zm-39.83,20.16a2.536,2.536,0,0,1-.847-4.929V42.351h1.695V44.2a2.538,2.538,0,0,1,1.695,2.387h-1.695a.847.847,0,1,0-.847.847,2.536,2.536,0,0,1,.847,4.929v1.851h-1.695V52.365a2.539,2.539,0,0,1-1.695-2.387h1.695a.847.847,0,1,0,.847-.847Z" transform="translate(-21.942)" fill="#dc773d" stroke="#f5fbea" stroke-width="0.5"/>
      <path id="Path_349012" data-name="Path 349012" d="M212.542,58.157a2.545,2.545,0,0,0,2.542-2.542,2.513,2.513,0,0,0-.176-.912l2.307-1.977a2.5,2.5,0,0,0,3.019-.369l2.508,1.254a2.536,2.536,0,1,0,4.859-.664l4.922-4.429a2.5,2.5,0,0,0,1.2.318,2.546,2.546,0,1,0-2.348-1.569l-4.922,4.429a2.491,2.491,0,0,0-2.965.4l-2.508-1.254a2.537,2.537,0,1,0-5.054-.309,2.514,2.514,0,0,0,.176.912L213.8,53.419a2.516,2.516,0,0,0-1.259-.347,2.542,2.542,0,1,0,0,5.085Zm21.186-12.712a.847.847,0,1,1-.847.847A.849.849,0,0,1,233.729,45.445Zm-8.475,7.627a.847.847,0,1,1-.847.847A.849.849,0,0,1,225.254,53.072Zm-6.78-3.39a.847.847,0,1,1-.847.847A.849.849,0,0,1,218.475,49.682Zm-5.932,5.085a.847.847,0,1,1-.847.847A.849.849,0,0,1,212.542,54.767Z" transform="translate(-124.673 -15.805)" fill="#dc773d" stroke="#f5fbea" stroke-width="0.5"/>
    </g>
    <g id="Rectangle_6526" data-name="Rectangle 6526" transform="translate(1121 1437)" fill="#fff" stroke="#707070" stroke-width="1" opacity="0">
      <rect width="55" height="55" stroke="none"/>
      <rect x="0.5" y="0.5" width="54" height="54" fill="none"/>
    </g>
  </g>
</svg>
