<svg xmlns="http://www.w3.org/2000/svg" width="55.001" height="55" viewBox="0 0 55.001 55">
  <g id="Group_24970" data-name="Group 24970" transform="translate(-562.999 -1436)">
    <g id="noun-isolation-64171" transform="translate(490.211 1406.609)">
      <path id="Path_349108" data-name="Path 349108" d="M201.105,162.989a3.394,3.394,0,1,0-3.393-3.392A3.409,3.409,0,0,0,201.105,162.989Z" transform="translate(-112.662 -111.629)" fill="#dc773d"/>
      <path id="Path_349109" data-name="Path 349109" d="M199.66,246.456H176.206L161.73,232.991l3.148-3.387,13.145,12.228H199.66Z" transform="translate(-80.22 -177.81)" fill="#dc773d" stroke="#f5fbea" stroke-width="2"/>
      <path id="Path_349110" data-name="Path 349110" d="M275.809,232.284a2.526,2.526,0,0,1-1.4-.417l-5.873-3.819-7.859,3.964a2.57,2.57,0,0,1-2.839-.352l-7.414-6.424a2.569,2.569,0,0,1,3.365-3.884l6.112,5.3,7.641-3.854a2.58,2.58,0,0,1,2.559.14l7.11,4.63a2.568,2.568,0,0,1-1.4,4.721Z" transform="translate(-159.39 -169.806)" fill="#dc773d" stroke="#f5fbea" stroke-width="2"/>
      <path id="Path_349111" data-name="Path 349111" d="M203.625,432.784H199.4v-7.546H170.33v7.546h-4.218V421.02h37.513Z" transform="translate(-84.171 -350.393)" fill="#dc773d" stroke="#f5fbea" stroke-width="2"/>
      <path id="Path_349112" data-name="Path 349112" d="M75.795,478.248H73.074v-6.8h2.721Z" transform="translate(-0.286 -395.857)" fill="#dc773d"/>
      <path id="Path_349113" data-name="Path 349113" d="M75.795,381.449H73.074v-6.8h2.721Z" transform="translate(-0.286 -308.583)" fill="#dc773d"/>
      <path id="Path_349114" data-name="Path 349114" d="M75.795,284.648H73.074v-6.8h2.721Z" transform="translate(-0.286 -221.305)" fill="#dc773d"/>
      <path id="Path_349115" data-name="Path 349115" d="M75.795,187.848H73.074v-6.8h2.721Z" transform="translate(-0.286 -134.028)" fill="#dc773d"/>
      <path id="Path_349116" data-name="Path 349116" d="M75.795,91.048H73.074v-6.8h2.721Z" transform="translate(-0.286 -46.752)" fill="#dc773d"/>
      <path id="Path_349117" data-name="Path 349117" d="M604.755,478.248h-2.72v-6.8h2.72Z" transform="translate(-477.205 -395.857)" fill="#dc773d"/>
      <path id="Path_349118" data-name="Path 349118" d="M604.755,381.449h-2.72v-6.8h2.72Z" transform="translate(-477.205 -308.583)" fill="#dc773d"/>
      <path id="Path_349119" data-name="Path 349119" d="M604.755,284.648h-2.72v-6.8h2.72Z" transform="translate(-477.205 -221.305)" fill="#dc773d"/>
      <path id="Path_349120" data-name="Path 349120" d="M604.755,187.848h-2.72v-6.8h2.72Z" transform="translate(-477.205 -134.028)" fill="#dc773d"/>
      <path id="Path_349121" data-name="Path 349121" d="M604.755,91.048h-2.72v-6.8h2.72Z" transform="translate(-477.205 -46.752)" fill="#dc773d"/>
      <path id="Path_349122" data-name="Path 349122" d="M567.328,35.112h-6.8V32.391h6.8Z" transform="translate(-439.778)" fill="#dc773d"/>
      <path id="Path_349123" data-name="Path 349123" d="M80.221,35.112H73.078V32.391h7.143Z" transform="translate(-0.29)" fill="#dc773d"/>
      <path id="Path_349124" data-name="Path 349124" d="M470.528,35.112h-6.8V32.391h6.8Z" transform="translate(-352.502)" fill="#dc773d"/>
      <path id="Path_349125" data-name="Path 349125" d="M373.738,35.112h-6.8V32.391h6.8Z" transform="translate(-265.235)" fill="#dc773d"/>
      <path id="Path_349126" data-name="Path 349126" d="M276.949,35.112h-6.8V32.391h6.8Z" transform="translate(-177.97)" fill="#dc773d"/>
      <path id="Path_349127" data-name="Path 349127" d="M180.138,35.112h-6.8V32.391h6.8Z" transform="translate(-90.683)" fill="#dc773d"/>
    </g>
    <g id="Rectangle_6523" data-name="Rectangle 6523" transform="translate(563 1436)" fill="#fff" stroke="#707070" stroke-width="1" opacity="0">
      <rect width="55" height="55" stroke="none"/>
      <rect x="0.5" y="0.5" width="54" height="54" fill="none"/>
    </g>
  </g>
</svg>
